HIERARCHY
ROOT Hips
{
	OFFSET -3.958830 18.904000 13.208200
	CHANNELS 6 Xposition Yposition Zposition Zrotation Yrotation Xrotation 
	JOINT LHipJoint
	{
		OFFSET 0.000000 0.000000 0.000000
		CHANNELS 3 Zrotation Yrotation Xrotation
		JOINT LeftUpLeg
		{
			OFFSET 1.800000 -1.400000 0.085000
			CHANNELS 3 Zrotation Yrotation Xrotation
			JOINT LeftLeg
			{
				OFFSET 2.215000 -6.000000 0.000000
				CHANNELS 3 Zrotation Yrotation Xrotation
				JOINT LeftFoot
				{
					OFFSET 2.500000 -6.900000 0.000000
					CHANNELS 3 Zrotation Yrotation Xrotation
					JOINT LeftToeBase
					{
						OFFSET 0.200000 -0.500000 1.950000
						CHANNELS 3 Zrotation Yrotation Xrotation
						End Site
						{
							OFFSET 0.000000 0.000000 0.000000
						}
					}
				}
			}
		}
	}
	JOINT RHipJoint
	{
		OFFSET 0.000000 0.000000 0.000000
		CHANNELS 3 Zrotation Yrotation Xrotation
		JOINT RightUpLeg
		{
			OFFSET -1.800000 -1.400000 0.085000
			CHANNELS 3 Zrotation Yrotation Xrotation
			JOINT RightLeg
			{
				OFFSET -2.215000 -6.000000 0.000000
				CHANNELS 3 Zrotation Yrotation Xrotation
				JOINT RightFoot
				{
					OFFSET -2.500000 -6.900000 0.000000
					CHANNELS 3 Zrotation Yrotation Xrotation
					JOINT RightToeBase
					{
						OFFSET -0.200000 -0.500000 1.950000
						CHANNELS 3 Zrotation Yrotation Xrotation
						End Site
						{
							OFFSET 0.000000 0.000000 0.000000
						}
					}
				}
			}
		}
	}
	JOINT LowerBack
	{
		OFFSET 0.000000 0.000000 0.000000
		CHANNELS 3 Zrotation Yrotation Xrotation
		JOINT Spine
		{
			OFFSET -0.087000 1.940000 -0.288900
			CHANNELS 3 Zrotation Yrotation Xrotation
			JOINT Spine1
			{
				OFFSET 0.000000 1.950000 0.060000
				CHANNELS 3 Zrotation Yrotation Xrotation
				JOINT Neck
				{
					OFFSET 0.000000 0.000000 0.000000
					CHANNELS 3 Zrotation Yrotation Xrotation
					JOINT Neck1
					{
						OFFSET 0.000000 1.600000 0.340000
						CHANNELS 3 Zrotation Yrotation Xrotation
						JOINT Head
						{
							OFFSET 0.000000 1.667000 -0.240000
							CHANNELS 3 Zrotation Yrotation Xrotation
							End Site
							{
								OFFSET 0.000000 0.000000 0.000000
							}
						}
					}
				}
				JOINT LeftShoulder
				{
					OFFSET 0.000000 0.000000 0.000000
					CHANNELS 3 Zrotation Yrotation Xrotation
					JOINT LeftArm
					{
						OFFSET 2.700000 1.550000 -0.730000
						CHANNELS 3 Zrotation Yrotation Xrotation
						JOINT LeftForeArm
						{
							OFFSET 5.450000 0.000000 0.000000
							CHANNELS 3 Zrotation Yrotation Xrotation
							JOINT LeftHand
							{
								OFFSET 3.450000 0.000000 0.000000
								CHANNELS 3 Zrotation Yrotation Xrotation
								JOINT LeftHandIndex1
								{
									OFFSET 0.750000 0.000000 0.000000
									CHANNELS 3 Zrotation Yrotation Xrotation
									End Site
									{
										OFFSET 0.000000 0.000000 0.000000
									}
								}
							}
						}
					}
				}
				JOINT RightShoulder
				{
					OFFSET 0.000000 0.000000 0.000000
					CHANNELS 3 Zrotation Yrotation Xrotation
					JOINT RightArm
					{
						OFFSET -2.700000 1.550000 -0.730000
						CHANNELS 3 Zrotation Yrotation Xrotation
						JOINT RightForeArm
						{
							OFFSET -5.450000 0.000000 0.000000
							CHANNELS 3 Zrotation Yrotation Xrotation
							JOINT RightHand
							{
								OFFSET -3.450000 0.000000 0.000000
								CHANNELS 3 Zrotation Yrotation Xrotation
								JOINT RightHandIndex1
								{
									OFFSET -0.750000 0.000000 0.000000
									CHANNELS 3 Zrotation Yrotation Xrotation
									End Site
									{
										OFFSET 0.000000 0.000000 0.000000
									}
								}
							}
						}
					}
				}
			}
		}
	}
}
MOTION
Frames: 7
Frame Time: 0.016667
-27.563160 16.088170 -15.773430 -2.497669 -25.195155 8.801973 -16.606787 11.092686 4.356944 -1.419697 -0.453614 -55.448435 -8.254200 25.525156 65.143536 2.439945 14.130456 0.115421 -0.728460 -1.120130 -0.418520 17.758571 -4.563520 7.676149 12.510953 32.609882 -43.154876 -16.566433 7.855066 67.163253 -1.222482 -9.694315 1.082586 -0.827330 0.215000 0.357710 -0.820742 -4.158630 -11.824662 15.517400 11.554590 20.176620 -3.686291 9.110719 23.506844 40.809102 -4.113557 -53.163798 0.142687 -50.060231 3.946996 -33.571900 -32.820600 27.226470 20.957626 -17.987812 52.304480 61.115162 -54.796380 -170.238459 9.644730 0.671542 0.561953 2.091453 4.888567 -0.240630 0.253790 -0.345640 -0.141910 -61.875588 31.392703 55.974759 -49.007572 25.081601 173.174403 -3.564801 -12.018318 179.050633 1.925403 -7.174336 0.096360 -0.471670 0.319560 0.203440 
-27.543540 16.100000 -15.784620 -6.234435 -31.782235 10.970701 -16.929589 11.416450 4.612385 2.888822 2.787842 -57.151159 -10.493902 27.817876 63.956047 2.291724 14.340775 -0.052834 -0.505150 -0.820620 -0.265350 17.429083 -4.592437 6.905172 10.412264 30.278159 -40.879605 -9.019392 2.375678 59.697571 -0.877298 -7.986047 1.618291 -0.615000 0.133130 0.303130 -0.102526 -4.442788 -12.322434 20.100058 11.239176 22.640456 -2.608804 6.911180 25.053384 45.592394 -6.840527 -49.617345 -3.438211 -45.946311 6.782854 -31.113970 -30.553250 19.082930 14.866214 -21.761091 44.746296 55.166435 -59.885940 -168.703898 11.142650 1.723528 0.437927 3.336953 4.511983 -0.128900 0.189860 -0.242860 -0.103300 -64.518715 32.089643 53.984096 -49.615819 21.733580 173.704158 -0.966066 -11.939330 179.138392 6.357894 -8.898390 0.069400 -0.346380 0.228500 0.148890 
-27.521250 16.129960 -15.812420 -5.274055 -30.624947 6.121431 -16.883915 9.828579 3.616003 2.475183 2.368518 -52.035227 -8.669909 25.278033 64.806352 2.097417 13.962761 -0.005274 -0.248160 -0.489700 -0.220850 17.463396 -6.720744 6.555491 17.207275 28.761927 -34.828322 -16.742747 7.098124 58.942544 -1.072511 -8.095319 1.650886 -0.405190 0.139020 0.228830 -0.407419 -3.609654 -13.778025 23.944168 5.714011 28.834286 3.246957 -8.020378 34.004266 45.548455 -7.758839 -53.081422 -18.844277 -31.265401 15.870595 -18.879310 -29.061670 7.013270 1.752705 -25.612079 26.035709 39.282223 -61.643486 -166.911410 14.789842 -2.211740 0.206288 5.109650 3.081253 0.025450 0.062180 -0.152120 0.001610 -58.179897 38.646353 46.425050 -51.376402 2.126916 -113.117855 17.664588 -17.299320 -0.025898 -13.214806 3.817648 0.057860 -0.164820 0.166030 0.162810 
-27.566100 16.156520 -15.866610 -5.349482 -34.226355 1.332437 -16.410781 11.693836 5.573110 9.690283 0.361071 -47.167756 -21.253858 31.086827 60.181289 2.279665 14.577322 -0.239340 0.084450 -0.059050 -0.077600 17.393169 -7.204778 4.986573 3.300633 20.928832 -31.581263 7.980555 -8.251168 50.423110 -0.916341 -7.114841 1.920585 -0.177070 -0.024790 0.139120 -0.248756 -6.964275 -12.085773 23.951484 -2.526512 33.084998 -1.480979 -4.327666 36.482657 38.753443 -6.021854 -50.241822 -25.217916 -21.626781 24.207875 -7.517250 -27.633300 -5.923790 -0.785658 -19.714119 30.956634 54.987206 -56.151247 -166.403468 12.457204 3.576593 -0.109433 4.260144 4.048564 0.261860 -0.174280 0.061610 0.095240 -52.826025 43.617941 36.204207 -59.077643 9.843216 -153.763428 -5.990827 -20.571385 -2.024866 -3.638504 -0.817187 0.089230 -0.032370 0.020730 0.147710 
-27.595850 16.154240 -15.901480 -2.776402 -34.908288 -2.799048 -16.049145 12.034644 6.408827 13.512169 -3.592603 -43.101994 -33.208223 32.736848 52.461305 2.160908 14.224446 -0.241611 0.287830 0.186670 0.076140 17.601850 -7.371392 4.174766 -4.664328 15.788438 -29.294364 18.633371 -13.971531 45.104006 -1.151104 -7.562067 1.668572 -0.024000 -0.125330 0.150420 -0.897523 -6.835189 -11.355246 23.908246 -5.482138 34.165482 -0.737564 -2.447921 36.157379 25.419624 -3.658316 -51.560269 -22.268520 -13.864147 36.763702 -1.156780 -22.751560 -13.070750 -1.491994 -19.538379 34.473027 67.766148 -52.568930 -166.159983 9.133128 4.815202 -0.019459 2.542517 4.577895 0.450030 -0.267830 0.220190 0.085810 -35.939148 44.215924 32.299624 -53.635366 28.467390 -179.946744 0.823370 1.121772 0.205195 -1.083372 -3.508943 0.093790 0.039210 -0.012270 0.073390 
-27.617420 16.171670 -15.927100 -0.865015 -36.884480 -5.071520 -15.928725 11.793065 6.616317 17.084027 -5.250838 -40.877130 -40.268407 31.425043 45.626762 1.650625 13.633169 -0.247263 0.371420 0.254420 0.254940 17.750516 -7.548995 3.789424 -5.951826 13.348094 -29.110597 18.006425 -15.064413 45.725205 -1.242873 -7.667231 1.545066 0.101960 -0.157160 0.149280 -1.330119 -5.974086 -11.042891 23.594318 -7.348963 35.690608 -2.633376 -2.129290 35.438579 20.007083 -2.081002 -49.050586 -18.092570 -11.454882 40.444069 0.463640 -18.080070 -24.931580 -3.374310 -19.555738 33.134081 71.835348 -49.751164 -165.907150 7.995106 5.114564 -0.427221 1.729987 4.383989 0.717480 -0.310380 0.315200 -0.050000 -28.568730 40.966091 33.249519 -59.185362 33.432584 -176.363679 2.187229 6.589078 0.363398 0.029185 -3.128132 -0.044940 0.235010 0.101070 -0.082350 
-27.659830 16.183170 -15.924670 0.090339 -39.128804 -5.817738 -15.713001 10.979657 6.951293 21.526804 -7.325856 -40.017101 -47.856237 30.307905 40.021850 1.345949 13.268595 -0.267208 0.513040 0.408370 0.418410 18.007188 -8.178016 3.505663 -2.185926 10.906111 -30.207479 9.992904 -13.600044 50.453878 -1.295763 -7.668153 1.458992 0.262280 -0.208570 0.155680 -2.290424 -3.787785 -10.932364 26.224437 -7.379421 33.375527 -3.923938 -0.426964 37.398691 13.812030 -0.222523 -48.253207 -10.877623 -10.403983 45.914036 2.489240 -14.894880 -31.154040 0.327418 -23.639654 30.594540 71.829836 -47.261024 -168.370956 5.604606 3.197001 -0.780845 1.410889 4.320868 0.883620 -0.346540 0.405480 -0.109330 -23.333392 38.819975 30.024461 -59.272470 43.933853 -162.366380 -17.522977 12.790441 0.469428 0.853121 -1.001747 -0.116830 0.341110 0.117290 -0.176830 
